<svg xmlns="http://www.w3.org/2000/svg" width="48" height="48" viewBox="0 0 16 16" version="1.0">
   <defs />
   <g id="fp-toolbar-icon-wrapper">
    <path
     d="M 6.9528311,5.5392061 C 6.078693,5.9865447 5.1558911,7.1951946 4.1564529,7.411725 C 2.93869,7.6755556 0.32687179,6.9664456 0.15430293,7.5951656 C -0.047715679,8.331182 0.76226407,9.1562478 1.2788196,9.8302167 C 1.768913,10.46966 2.8447406,11.065076 3.2336907,11.770624 C 3.3555466,11.991667 3.327603,12.497042 3.2231514,12.726823 C 3.0441481,13.120608 2.4364022,12.999877 2.4186989,13.432075 C 2.3962947,13.979032 3.5542026,14.104873 3.9994847,14.423288 C 4.9507718,15.103545 7.7144436,14.39272 9.4389993,14.61604 C 10.221736,14.717399 11.148814,15.322006 11.847091,14.954095 C 12.396545,14.664595 12.407857,13.76107 12.638755,13.18453 C 13.274855,11.596224 15.339377,10.113117 15.809787,8.3770041 C 15.951135,7.8553401 16.051011,7.6443863 16.003543,6.5677102 C 15.985486,6.1627501 14.313661,6.6791933 14.181997,6.250809 C 13.877926,5.2614784 13.49069,1.5693024 12.492336,1.2418717 C 11.888559,1.0438517 10.685347,3.7418119 10.405836,4.0233778 C 9.5690224,4.8663364 8.0102037,4.9980972 6.9528311,5.5392061 z"
     child="1" style="fill:#404141;fill-opacity:1;fill-rule:evenodd;"/>
    <path
     d="M 0.20568678,7.6645691 C 0.34341861,7.1394626 1.600145,7.6615473 2.1392725,7.8053546 C 2.6380008,7.938386 3.5316438,8.0278899 3.5818747,8.6214607 C 3.6321051,9.2150325 3.2384352,11.591761 3.2064979,11.559464 C 2.8655525,11.144845 2.7334657,11.050912 2.6112386,10.932857 C 2.3686973,10.726265 1.6615351,10.160608 1.428759,9.8838909 C 1.3015746,9.6805773 0.020150234,8.3719324 0.20568678,7.6645691 z M 12.549184,1.3457735 C 12.08794,1.0786303 11.823308,2.1859312 11.573845,2.6850383 C 11.343077,3.1467446 10.810782,3.9512951 11.303578,4.4207004 C 11.793649,4.8875075 13.965942,6.2236498 14.056531,6.1200186 C 13.950492,5.5038385 13.918276,5.4561008 13.887697,5.291173 C 13.836482,5.0149429 13.710036,4.3213368 13.585833,3.7901471 C 13.540272,3.5952949 13.181999,1.7122868 12.549184,1.3457735 z M 3.386261,12.385661 C 3.3570684,12.689383 3.2883504,12.877502 3.0628724,13.016513 C 2.7029847,13.2153 3.9697067,13.988726 4.538983,14.358195 C 5.205776,14.790955 7.8050167,14.411446 9.3377054,14.518677 C 9.8933234,14.536208 10.797184,15.013062 11.36776,14.979834 C 11.544589,14.969537 11.862801,14.88525 11.982838,14.754996 C 12.370109,14.334753 12.387909,13.452175 12.641905,12.940248 C 13.281597,11.650953 15.119024,10.063421 15.604578,8.7085325 C 15.68297,7.8356261 15.781428,6.5126663 15.520318,6.4870409 C 15.214754,6.4917744 14.561412,6.5346772 14.350326,6.479347 C 14.462374,6.9675086 14.625496,7.7809115 14.38129,8.4287458 C 14.285095,8.858654 13.966789,9.3695968 13.738912,9.7466211 C 13.372822,10.352321 12.684383,11.009494 12.364183,11.640657 C 12.224139,11.91671 12.208036,12.037577 12.087635,12.322745 C 12.06251,12.382254 11.982325,12.663208 11.945511,12.825914 C 11.90851,12.989448 11.906502,13.229117 11.9294,13.390753 C 11.944152,13.494889 11.975549,13.578024 11.973719,13.683186 C 11.970576,13.863807 11.914997,13.936036 11.788877,14.08214 C 11.682284,14.205627 11.555137,14.224132 11.39542,14.234519 C 11.300053,14.240721 11.130483,14.190616 11.036709,14.172199 C 10.876636,14.140759 10.662733,14.081069 10.502349,14.051254 C 10.22285,13.999299 9.9071515,13.847946 9.6320408,13.776307 C 9.3744382,13.709228 9.215233,13.569314 8.7517211,13.553732 C 8.3073216,13.538795 7.6077138,13.570923 5.3178657,13.413012 C 4.745423,13.21185 4.5368845,13.069772 4.2731323,12.917328 C 4.0311097,12.777446 3.4512118,12.2911 3.386261,12.385661 z M 5.9557144,10.876883 C 5.8265042,10.834827 5.8027499,10.862428 5.7567876,10.920405 C 5.6934488,11.033932 5.7252893,11.154962 5.752615,11.35181 C 5.922675,11.596936 6.1095328,11.882976 6.3873679,11.90327 C 6.773174,11.899855 6.9465841,11.754501 7.042559,11.476784 C 7.0639367,11.298034 6.933336,11.079698 6.7666373,11.003316 C 6.3332289,10.89082 6.3246031,11.190952 6.2272415,11.429915 C 5.8487682,11.245117 6.057563,10.972678 5.9557144,10.876883 z"
     child="2" style="fill:#ffffff;fill-opacity:1;fill-rule:evenodd;"/>
    <path
     d="M 3.369765,10.680671 C 3.5727317,10.690432 3.8770401,10.969605 4.1132953,11.031118 C 4.4925298,11.079283 4.8603067,11.022199 5.1959193,11.063738 C 5.5239398,11.119623 5.7350317,11.971153 6.3058989,12.030581 C 6.9914773,12.052432 7.2804998,11.497762 7.6468781,11.523929 C 7.8440671,11.539268 8.1556597,11.449823 8.3579343,11.51788 C 9.2222769,11.865234 10.14038,12.776892 10.906425,13.608604 C 10.960941,13.744537 10.945608,13.977947 10.937125,14.144287 C 10.437546,14.093775 9.6034124,13.761082 9.0892825,13.590076 C 8.1621687,13.499422 6.3869294,13.581782 5.3053032,13.416568 C 4.8841641,13.294572 4.2593683,12.934856 3.9216324,12.67248 C 3.5606357,12.441678 3.410735,12.347246 3.3913281,12.366665 C 3.4268388,12.053346 3.3589432,11.771177 3.2107471,11.576049 C 3.2655485,11.298117 3.3390792,10.896635 3.369765,10.680671 z M 13.412942,5.8487646 C 13.5582,5.8853679 13.838101,6.1039924 14.06634,6.1334002 C 14.108924,6.3685674 14.169958,6.4159442 14.352896,6.4740975 C 14.437858,6.844685 14.527194,7.2873813 14.517468,7.6877218 C 14.498132,8.5231032 14.106452,9.1193122 13.782707,9.6704315 C 13.48933,10.218339 12.915157,10.777331 12.585977,11.283218 C 12.320513,11.666175 12.082532,12.245602 11.976013,12.723691 C 11.939245,12.8923 11.924561,13.171505 11.923572,13.320214 C 11.791451,13.255802 11.786234,13.235417 11.673201,13.084437 C 11.37019,12.442011 11.140744,11.386563 11.098681,11.008291 C 11.094289,10.494878 11.015465,9.6640618 11.087424,9.2377371 C 11.571074,8.5220689 11.897515,8.3404393 12.615171,7.6136001 C 12.696253,7.5130635 12.875624,7.4851031 12.998103,7.4448331 C 12.881467,7.3852593 12.819701,7.388757 12.694765,7.3895745 C 12.741964,7.2853626 13.220837,6.9620062 13.180894,6.9105011 C 13.138931,6.8563922 12.781818,7.1186342 12.547034,7.3201739 C 12.715029,7.0815709 13.00214,6.7836699 13.146761,6.5203061 C 13.281717,6.2073113 13.343088,6.0209861 13.412942,5.8487646 z M 10.644357,4.5191651 C 10.318327,4.5218002 10.202455,4.5312156 9.7247459,4.5949623 C 8.8728289,5.0115836 7.6898876,5.2104852 6.8841482,5.6596449 C 6.1840911,6.10177 5.477202,6.852413 4.6863901,7.3044758 C 4.2872429,7.6149107 3.717839,8.3309511 3.5860504,8.8772274 C 3.5637732,9.3694763 3.452209,10.02604 3.4059454,10.447378 C 3.6032888,10.662574 3.8623409,10.769955 4.1569797,10.838372 C 4.5569612,10.913486 5.3467496,10.874895 5.5682779,10.784535 C 5.9804438,10.562302 6.1134111,10.424144 6.4011658,10.348694 C 6.6867327,10.340809 6.8697623,10.377065 7.097337,10.436888 C 7.4531131,10.601524 7.7818208,10.743226 8.1999155,10.971296 C 8.9191953,11.45319 10.132824,12.561882 10.981433,13.410362 C 11.230277,13.38687 11.412467,13.293967 11.502534,13.202009 C 11.27667,12.553901 11.185208,12.270242 11.007959,11.611453 C 10.926818,11.342381 10.822322,11.038836 10.83247,10.650862 C 10.836338,10.015912 10.794339,9.8058101 10.819836,9.1660101 C 10.974159,8.7381282 10.980631,8.639325 11.189429,8.3576426 C 11.939782,7.6883549 12.136335,7.4770773 12.578704,6.9445246 C 12.832039,6.6012321 13.45392,5.7981166 13.221929,5.7259871 C 12.46368,5.2805256 11.755423,4.7883885 11.544567,4.62131 C 11.28974,4.5420101 10.970386,4.5165307 10.644357,4.5191651 z M 10.870413,7.1211481 C 10.994166,7.0975313 11.113385,7.1507515 11.237243,7.2173728 C 11.320969,7.2652226 11.412631,7.3647636 11.396272,7.4722275 C 11.365214,7.517055 11.032028,7.4535045 10.868432,7.5028614 C 10.744846,7.5401476 10.746225,7.7022038 10.7092,7.8388548 C 10.675269,7.9040084 10.542151,7.9673098 10.453766,7.9299163 C 10.382429,7.8676599 10.470005,7.5833976 10.512504,7.4588313 C 10.575693,7.3246788 10.683931,7.1721997 10.870413,7.1211481 z M 5.4984246,8.7197829 C 5.6289133,8.6821513 5.8154856,8.7204717 5.9696433,8.7942046 C 6.0841061,8.8613794 6.3509112,9.1640647 6.3294408,9.2931018 C 6.2648944,9.3540877 6.164821,9.3259996 6.0521167,9.2693162 C 5.8813095,9.1427944 5.8379278,9.0525661 5.6524934,9.0060516 C 5.5015084,9.0316759 5.464792,9.1630934 5.3725201,9.2855559 C 5.2946105,9.2872545 5.2469955,9.2769124 5.1731311,9.2035927 C 5.1388143,9.0319441 5.3582827,8.7843901 5.4984246,8.7197829 z"
     id="fp-toolbar-icon-3"
     child="3" style="fill:#e78500;fill-opacity:1;fill-rule:evenodd;"/>
    <path
     d="M 7.7752361,8.0713883 C 8.2357511,8.1047023 9.0181331,9.1274945 9.593674,9.1644079 C 9.7939088,8.7551967 9.1818749,7.5334182 9.4605917,7.0426773 C 9.587645,6.9199001 9.7368859,7.1054057 9.8679577,6.9869243 C 10.045674,6.5266328 10.102021,5.7007475 10.030153,5.155492 C 8.773076,4.9278955 5.9665723,6.2696832 5.4895382,7.3692693 C 5.6671886,8.2743091 6.9507561,8.3704147 7.6433022,8.5430959 C 7.7899242,8.4001393 7.6360949,8.1250716 7.7752361,8.0713883 z M 4.056517,11.806542 C 4.7190124,11.855627 5.326614,12.352907 6.1331704,12.520895 C 6.5947575,12.727856 7.510389,12.356139 8.5293994,12.693972 C 8.9015172,12.793461 9.4077764,12.943647 9.5694597,13.255056 C 9.5734496,13.322804 9.4814885,13.406637 9.4139446,13.41324 C 9.0316557,13.322426 8.8843475,13.142724 8.689763,13.105677 C 7.6159931,12.907688 6.3497738,13.228414 5.3747241,13.102508 C 4.7221956,12.884416 4.3320393,12.661591 4.0172704,12.110141 C 3.9810438,12.02575 3.9784869,11.85497 4.056517,11.806542 z M 13.631863,7.1964869 C 13.40808,7.5562295 13.377639,7.5804303 13.242968,8.3535247 C 13.007705,9.0153875 12.561448,9.2550924 11.885833,10.249827 C 11.74228,10.607264 11.621856,11.133286 11.706563,11.502287 C 11.758383,11.546109 11.88062,11.522795 11.92641,11.472704 C 12.054549,10.840679 12.358602,10.465567 12.477289,10.318745 C 13.367218,9.5516987 14.073007,9.1412775 14.100137,8.0541158 C 14.118124,7.6930443 14.119515,7.6267509 14.097288,7.3768352 C 13.982226,7.1461924 13.819367,7.1622228 13.631863,7.1964869 z"
     child="4" style="fill:#ffffff;fill-opacity:0.20392157;fill-rule:evenodd;"/>
   </g>
   <g id="fp-toolbar-disabled-wrapper" wrapper="true">
    <path
     d="M 8,0 C 3.584,8.8817842e-16 -3.006854e-17,3.584 0,8 C 0,12.416 3.584,16 8,16 C 12.416,16 16,12.416 16,8 C 16,3.584 12.416,-1.8665625e-15 8,0 z M 7.8125,1 C 9.8281648,0.94927401 11.856778,1.7662746 13.28125,3.40625 C 15.588012,6.0619933 15.589233,9.9390689 13.28125,12.59375 L 3.40625,2.71875 C 4.6817864,1.6108274 6.2447607,1.0394535 7.8125,1 z M 2.71875,3.40625 L 12.59375,13.28125 C 9.6776547,15.812973 5.2504728,15.509845 2.71875,12.59375 C 0.41476947,9.9399733 0.41589633,6.0610044 2.71875,3.40625 z"
     child="5" style="fill: #c80000;fill-opacity:1;fill-rule:evenodd;stroke:none;stroke-width:1px;stroke-linecap:butt;stroke-linejoin:miter;stroke-opacity:1"/>
   </g>
  </svg>
